<?xml version="1.0" encoding="utf-8" standalone="no"?>
<!-- Generator: DataGraph - https://www.visualdatatools.com/DataGraph/index.html  --><!DOCTYPE svg PUBLIC "-//W3C//DTD SVG 1.1//EN" "http://www.w3.org/Graphics/SVG/1.1/DTD/svg11.dtd">
<svg width="834.5" height="501" version="1.1" xmlns="http://www.w3.org/2000/svg" xmlns:xlink="http://www.w3.org/1999/xlink">
<g>
  <!-- Commands -->
  <g id="Commands">
    <!-- 6.1x -->
    <g id="6_1x">
      <path d="M 74.5 456.5 L 725.342 18.5 "
        stroke="rgb(228,28,28)" stroke-dasharray="0.02,4,8,4" stroke-linecap="butt" fill="none" stroke-width="2"/>
    </g>
    <!-- x^{1.1}+1.05^x-1 -->
    <g id="x_1_1_1_05_x_1">
      <path d="M 74.5 456.5 L 77.6506 456.151 L 87.1106 454.901 L 102.331 452.679 L 122.339 449.551 L 145.787 445.678 
               L 171.119 441.288 L 196.92 436.614 L 222.063 431.857 L 246.072 427.113 L 268.549 422.47 
               L 289.48 417.943 L 308.909 413.537 L 326.884 409.257 L 343.53 405.091 L 359.055 401.003 
               L 373.675 396.948 L 387.353 392.948 L 400.207 388.985 L 412.338 385.039 L 423.954 381.051 
               L 435.031 377.034 L 445.483 373.033 L 455.451 369.005 L 464.937 364.961 L 474.169 360.809 
               L 483.058 356.59 L 491.551 352.34 L 499.816 347.979 L 507.667 343.614 L 515.452 339.056 
               L 522.879 334.477 L 530.119 329.781 L 537.141 324.99 L 544.027 320.05 L 550.814 314.932 
               L 557.396 309.714 L 563.825 304.361 L 570.046 298.924 L 576.162 293.317 L 582.26 287.452 
               L 588.234 281.423 L 594.011 275.312 L 599.856 268.83 L 605.492 262.279 L 611.074 255.484 
               L 616.574 248.472 L 622.02 241.201 L 627.436 233.631 L 632.749 225.858 L 637.995 217.829 
               L 643.173 209.538 L 648.35 200.867 L 653.486 191.868 L 658.575 182.543 L 663.545 173.024 
               L 668.601 162.9 L 673.569 152.496 L 678.509 141.682 L 683.441 130.398 L 688.333 118.698 
               L 693.24 106.428 L 697.985 94.0344 L 702.79 80.9235 L 707.615 67.1634 L 712.456 52.734 
               L 717.196 37.9685 L 721.914 22.6162 L 723.125 18.5 "
        stroke="rgb(228,28,28)" fill="none" stroke-width="3"/>
    </g>
    <!-- 6.1x - lineare Approximation -->
    <g id="6_1x_lineare_Approximation">
      <g font-family="Helvetica" font-size="12" fill="black">
        <text x="247.83" y="193.112">6.1x - lineare Approximation</text>
      </g>
      <g>
        <path d="M 400.182, 188.808 L 427.06, 215.687 
        M 400.182, 188.808 L 427.06, 215.687 "
          stroke="black" fill="none" stroke-width="0.5"/>
        <path d="M 429.182, 217.808 L 426.848, 209.111 
        L 426, 214.626 L 420.484, 215.475 z "
          fill="black" stroke="none"/>
      </g>
    </g>
    <!-- Legend -->
    <g id="Legend">
      <defs>
        <clipPath id="clipPath">
          <rect x="164.9" y="32" width="150" height="61.2"/>
        </clipPath>
      </defs>
      <g clip-path="url(#clipPath)">
        <rect x="164.9" y="32" width="150" height="61.2" fill="white" stroke="none"/>
      </g>
      <rect x="164.9" y="32" width="150" height="61.2" stroke="black" fill="none" stroke-width="0.5"/>
      <defs>
        <clipPath id="clipPath2">
          <rect x="164.9" y="32" width="150" height="61.2"/>
        </clipPath>
      </defs>
      <g clip-path="url(#clipPath2)">
        <defs>
          <clipPath id="clipPath3">
            <rect x="169.9" y="49.28" width="14" height="12.24"/>
          </clipPath>
        </defs>
        <g clip-path="url(#clipPath3)">
          <path d="M 169.9 55.5 L 183.9 55.5 "
            stroke="rgb(228,28,28)" stroke-dasharray="0.02,4,8,4" stroke-dashoffset="1.02" stroke-linecap="butt" fill="none" stroke-width="2"/>
        </g>
        <g font-family="Helvetica" font-size="12" fill="black">
          <text x="188.9" y="59.7037">6.1x</text>
        </g>
        <defs>
          <clipPath id="clipPath4">
            <rect x="169.9" y="63.68" width="14" height="12.24"/>
          </clipPath>
        </defs>
        <g clip-path="url(#clipPath4)">
          <path d="M 169.9 69.5 L 183.9 69.5 "
            stroke="rgb(228,28,28)" fill="none" stroke-width="3"/>
        </g>
        <g font-family="Helvetica" font-size="12" fill="black">
          <text x="188.9" y="74.1037">x</text>
          <text x="194.9" y="68.7696" font-size="9">1.1</text>
          <text x="207.411" y="74.1037">+1.05</text>
          <text x="237.775" y="68.7696" font-size="9">x</text>
          <text x="242.275" y="74.1037">-1</text>
        </g>
        <g>
          <circle cx="176.5" cy="84.5" r="4.5" fill="rgb(228,28,28)" stroke="none"/>
          <circle cx="176.5" cy="84.5" r="4.5" stroke="black" fill="none" stroke-width="2"/>
        </g>
        <g font-family="Helvetica" font-size="12" fill="black">
          <g font-style="italic">
            <text x="188.9" y="88.5037" font-family="Helvetica-Oblique">&quot;Werte im Array&quot;</text>
          </g>
        </g>
        <g font-family="Helvetica" font-size="12" fill="black">
          <text x="169.9" y="45.3037">Legende</text>
        </g>
      </g>
    </g>
    <!-- x^{1.1}+1.05^x-1 -->
    <g id="x_1_1_1_05_x_1_2">
      <g font-family="Helvetica" font-size="12" fill="black">
        <text x="517.703" y="260.909">x</text>
        <text x="523.703" y="255.575" font-size="9">1.1</text>
        <text x="536.214" y="260.909">+1.05</text>
        <text x="566.577" y="255.575" font-size="9">x</text>
        <text x="571.077" y="260.909">-1</text>
      </g>
      <g>
        <path d="M 549.725, 262.63 L 549.303, 313.113 
        M 549.725, 262.63 L 549.303, 313.113 "
          stroke="black" fill="none" stroke-width="0.5"/>
        <path d="M 549.278, 316.113 L 553.843, 308.35 
        L 549.316, 311.613 L 544.844, 308.275 z "
          fill="black" stroke="none"/>
      </g>
    </g>
    <!-- {\it "Werte im Array"} -->
    <g id="it_Werte_im_Array">
      <g>
        <circle cx="173.753" cy="437.337" r="4.5" fill="rgb(228,28,28)" stroke="none"/>
        <circle cx="173.753" cy="437.337" r="4.5" stroke="black" fill="none" stroke-width="2"/>
        <circle cx="322.633" cy="418.175" r="4.5" fill="rgb(228,28,28)" stroke="none"/>
        <circle cx="322.633" cy="418.175" r="4.5" stroke="black" fill="none" stroke-width="2"/>
        <circle cx="421.887" cy="390.8" r="4.5" fill="rgb(228,28,28)" stroke="none"/>
        <circle cx="421.887" cy="390.8" r="4.5" stroke="black" fill="none" stroke-width="2"/>
        <circle cx="521.14" cy="319.625" r="4.5" fill="rgb(228,28,28)" stroke="none"/>
        <circle cx="521.14" cy="319.625" r="4.5" stroke="black" fill="none" stroke-width="2"/>
        <circle cx="620.393" cy="237.5" r="4.5" fill="rgb(228,28,28)" stroke="none"/>
        <circle cx="620.393" cy="237.5" r="4.5" stroke="black" fill="none" stroke-width="2"/>
        <circle cx="719.647" cy="18.5" r="4.5" fill="rgb(228,28,28)" stroke="none"/>
        <circle cx="719.647" cy="18.5" r="4.5" stroke="black" fill="none" stroke-width="2"/>
        <circle cx="694.833" cy="138.95" r="4.5" fill="rgb(228,28,28)" stroke="none"/>
        <circle cx="694.833" cy="138.95" r="4.5" stroke="black" fill="none" stroke-width="2"/>
      </g>
    </g>
  </g>
  <!-- Foreground -->
  <g id="Foreground">
    <!-- Y Axis -->
    <g id="Y_Axis">
      <g transform="translate(14.0188,237.5) rotate(-90) translate(-14.0188,-237.5)" font-family="Helvetica" font-size="12" fill="black">
        <text x="5.35566" y="237.5">f(x)</text>
      </g>
      <!-- Y Labels -->
      <g id="Y_Labels">
        <g font-family="Helvetica" font-size="12" fill="black">
          <text x="57.4262" y="460.804">0</text>
        </g>
        <g font-family="Helvetica" font-size="12" fill="black">
          <text x="44.0785" y="406.054">100</text>
        </g>
        <g font-family="Helvetica" font-size="12" fill="black">
          <text x="44.0785" y="351.304">200</text>
        </g>
        <g font-family="Helvetica" font-size="12" fill="black">
          <text x="44.0785" y="296.554">300</text>
        </g>
        <g font-family="Helvetica" font-size="12" fill="black">
          <text x="44.0785" y="241.804">400</text>
        </g>
        <g font-family="Helvetica" font-size="12" fill="black">
          <text x="44.0785" y="187.054">500</text>
        </g>
        <g font-family="Helvetica" font-size="12" fill="black">
          <text x="44.0785" y="132.304">600</text>
        </g>
        <g font-family="Helvetica" font-size="12" fill="black">
          <text x="44.0785" y="77.5537">700</text>
        </g>
        <g font-family="Helvetica" font-size="12" fill="black">
          <text x="44.0785" y="22.8037">800</text>
        </g>
      </g>
      <path d="M 66.5 456.5 L 74.5 456.5 M 70.5 429.125 L 74.5 429.125 M 66.5 401.75 L 74.5 401.75 M 70.5 374.375 L 74.5 374.375 
               M 66.5 347 L 74.5 347 M 70.5 319.625 L 74.5 319.625 M 66.5 292.25 L 74.5 292.25 M 70.5 264.875 L 74.5 264.875 
               M 66.5 237.5 L 74.5 237.5 M 70.5 210.125 L 74.5 210.125 M 66.5 182.75 L 74.5 182.75 M 70.5 155.375 L 74.5 155.375 
               M 66.5 128 L 74.5 128 M 70.5 100.625 L 74.5 100.625 M 66.5 73.25 L 74.5 73.25 M 70.5 45.875 L 74.5 45.875 
               M 66.5 18.5 L 74.5 18.5 "
        stroke="black" fill="none" stroke-width="0.5"/>
    </g>
    <!-- X Axis -->
    <g id="X_Axis">
      <g font-family="Helvetica" font-size="12" fill="black">
        <text x="444" y="494">x</text>
      </g>
      <g>
        <g font-family="Helvetica" font-size="12" fill="black">
          <text x="71.1631" y="475.69">0</text>
        </g>
        <g font-family="Helvetica" font-size="12" fill="black">
          <text x="117.453" y="475.69">10</text>
        </g>
        <g font-family="Helvetica" font-size="12" fill="black">
          <text x="167.08" y="475.69">20</text>
        </g>
        <g font-family="Helvetica" font-size="12" fill="black">
          <text x="216.706" y="475.69">30</text>
        </g>
        <g font-family="Helvetica" font-size="12" fill="black">
          <text x="266.333" y="475.69">40</text>
        </g>
        <g font-family="Helvetica" font-size="12" fill="black">
          <text x="315.96" y="475.69">50</text>
        </g>
        <g font-family="Helvetica" font-size="12" fill="black">
          <text x="365.586" y="475.69">60</text>
        </g>
        <g font-family="Helvetica" font-size="12" fill="black">
          <text x="415.213" y="475.69">70</text>
        </g>
        <g font-family="Helvetica" font-size="12" fill="black">
          <text x="464.84" y="475.69">80</text>
        </g>
        <g font-family="Helvetica" font-size="12" fill="black">
          <text x="514.466" y="475.69">90</text>
        </g>
        <g font-family="Helvetica" font-size="12" fill="black">
          <text x="560.756" y="475.69">100</text>
        </g>
        <g font-family="Helvetica" font-size="12" fill="black">
          <text x="610.825" y="475.69">110</text>
        </g>
        <g font-family="Helvetica" font-size="12" fill="black">
          <text x="660.009" y="475.69">120</text>
        </g>
        <g font-family="Helvetica" font-size="12" fill="black">
          <text x="709.636" y="475.69">130</text>
        </g>
        <g font-family="Helvetica" font-size="12" fill="black">
          <text x="759.263" y="475.69">140</text>
        </g>
        <g font-family="Helvetica" font-size="12" fill="black">
          <text x="808.889" y="475.69">150</text>
        </g>
      </g>
      <path d="M 74.5 464.5 L 74.5 456.5 M 124.127 464.5 L 124.127 456.5 M 173.753 464.5 L 173.753 456.5 
               M 223.38 464.5 L 223.38 456.5 M 273.007 464.5 L 273.007 456.5 M 322.633 464.5 L 322.633 456.5 
               M 372.26 464.5 L 372.26 456.5 M 421.887 464.5 L 421.887 456.5 M 471.513 464.5 L 471.513 456.5 
               M 521.14 464.5 L 521.14 456.5 M 570.767 464.5 L 570.767 456.5 M 620.393 464.5 L 620.393 456.5 
               M 670.02 464.5 L 670.02 456.5 M 719.647 464.5 L 719.647 456.5 M 769.273 464.5 L 769.273 456.5 
               M 818.9 464.5 L 818.9 456.5 M 99.3133 460.5 L 99.3133 456.5 M 148.94 460.5 L 148.94 456.5 
               M 198.567 460.5 L 198.567 456.5 M 248.193 460.5 L 248.193 456.5 M 297.82 460.5 L 297.82 456.5 
               M 347.447 460.5 L 347.447 456.5 M 397.073 460.5 L 397.073 456.5 M 446.7 460.5 L 446.7 456.5 
               M 496.327 460.5 L 496.327 456.5 M 545.953 460.5 L 545.953 456.5 M 595.58 460.5 L 595.58 456.5 
               M 645.207 460.5 L 645.207 456.5 M 694.833 460.5 L 694.833 456.5 M 744.46 460.5 L 744.46 456.5 
               M 794.087 460.5 L 794.087 456.5 "
        stroke="black" fill="none" stroke-width="0.5"/>
    </g>
    <g font-family="Helvetica" font-size="12" fill="black">
      <g font-weight="bold">
        <text x="358.036" y="14.0188" font-family="Helvetica-Bold">Approximation von Funktionen</text>
      </g>
    </g>
    <path d="M 818.9 456.5 L 818.9 18.5 L 74.5 18.5 L 74.5 456.5 L 818.9 456.5 z "
      stroke="black" stroke-linecap="square" fill="none" stroke-width="0.5"/>
  </g>
</g>
</svg>
