<?xml version="1.0" encoding="utf-8" standalone="no"?>
<!-- Generator: DataGraph - https://www.visualdatatools.com/DataGraph/index.html  --><!DOCTYPE svg PUBLIC "-//W3C//DTD SVG 1.1//EN" "http://www.w3.org/Graphics/SVG/1.1/DTD/svg11.dtd">
<svg width="834.5" height="501" version="1.1" xmlns="http://www.w3.org/2000/svg" xmlns:xlink="http://www.w3.org/1999/xlink">
<g>
  <!-- Commands -->
  <g id="Commands">
    <!-- {\it "Werte im Array"} -->
    <g id="it_Werte_im_Array">
      <g>
        <circle cx="173.753" cy="437.337" r="4.5" fill="rgb(228,28,28)" stroke="none"/>
        <circle cx="173.753" cy="437.337" r="4.5" stroke="black" fill="none" stroke-width="2"/>
        <circle cx="322.633" cy="418.175" r="4.5" fill="rgb(228,28,28)" stroke="none"/>
        <circle cx="322.633" cy="418.175" r="4.5" stroke="black" fill="none" stroke-width="2"/>
        <circle cx="421.887" cy="390.8" r="4.5" fill="rgb(228,28,28)" stroke="none"/>
        <circle cx="421.887" cy="390.8" r="4.5" stroke="black" fill="none" stroke-width="2"/>
        <circle cx="521.14" cy="319.625" r="4.5" fill="rgb(228,28,28)" stroke="none"/>
        <circle cx="521.14" cy="319.625" r="4.5" stroke="black" fill="none" stroke-width="2"/>
        <circle cx="620.393" cy="237.5" r="4.5" fill="rgb(228,28,28)" stroke="none"/>
        <circle cx="620.393" cy="237.5" r="4.5" stroke="black" fill="none" stroke-width="2"/>
        <circle cx="719.647" cy="18.5" r="4.5" fill="rgb(228,28,28)" stroke="none"/>
        <circle cx="719.647" cy="18.5" r="4.5" stroke="black" fill="none" stroke-width="2"/>
        <circle cx="694.833" cy="138.95" r="4.5" fill="rgb(228,28,28)" stroke="none"/>
        <circle cx="694.833" cy="138.95" r="4.5" stroke="black" fill="none" stroke-width="2"/>
      </g>
    </g>
  </g>
  <!-- Foreground -->
  <g id="Foreground">
    <!-- Y Axis -->
    <g id="Y_Axis">
      <g transform="translate(14.0188,237.5) rotate(-90) translate(-14.0188,-237.5)" font-family="Helvetica" font-size="12" fill="black">
        <text x="5.35566" y="237.5">f(x)</text>
      </g>
      <!-- Y Labels -->
      <g id="Y_Labels">
        <g font-family="Helvetica" font-size="12" fill="black">
          <text x="57.4262" y="460.804">0</text>
        </g>
        <g font-family="Helvetica" font-size="12" fill="black">
          <text x="44.0785" y="406.054">100</text>
        </g>
        <g font-family="Helvetica" font-size="12" fill="black">
          <text x="44.0785" y="351.304">200</text>
        </g>
        <g font-family="Helvetica" font-size="12" fill="black">
          <text x="44.0785" y="296.554">300</text>
        </g>
        <g font-family="Helvetica" font-size="12" fill="black">
          <text x="44.0785" y="241.804">400</text>
        </g>
        <g font-family="Helvetica" font-size="12" fill="black">
          <text x="44.0785" y="187.054">500</text>
        </g>
        <g font-family="Helvetica" font-size="12" fill="black">
          <text x="44.0785" y="132.304">600</text>
        </g>
        <g font-family="Helvetica" font-size="12" fill="black">
          <text x="44.0785" y="77.5537">700</text>
        </g>
        <g font-family="Helvetica" font-size="12" fill="black">
          <text x="44.0785" y="22.8037">800</text>
        </g>
      </g>
      <path d="M 66.5 456.5 L 74.5 456.5 M 70.5 429.125 L 74.5 429.125 M 66.5 401.75 L 74.5 401.75 M 70.5 374.375 L 74.5 374.375 
               M 66.5 347 L 74.5 347 M 70.5 319.625 L 74.5 319.625 M 66.5 292.25 L 74.5 292.25 M 70.5 264.875 L 74.5 264.875 
               M 66.5 237.5 L 74.5 237.5 M 70.5 210.125 L 74.5 210.125 M 66.5 182.75 L 74.5 182.75 M 70.5 155.375 L 74.5 155.375 
               M 66.5 128 L 74.5 128 M 70.5 100.625 L 74.5 100.625 M 66.5 73.25 L 74.5 73.25 M 70.5 45.875 L 74.5 45.875 
               M 66.5 18.5 L 74.5 18.5 "
        stroke="black" fill="none" stroke-width="0.5"/>
    </g>
    <!-- X Axis -->
    <g id="X_Axis">
      <g font-family="Helvetica" font-size="12" fill="black">
        <text x="444" y="494">x</text>
      </g>
      <g>
        <g font-family="Helvetica" font-size="12" fill="black">
          <text x="71.1631" y="475.69">0</text>
        </g>
        <g font-family="Helvetica" font-size="12" fill="black">
          <text x="117.453" y="475.69">10</text>
        </g>
        <g font-family="Helvetica" font-size="12" fill="black">
          <text x="167.08" y="475.69">20</text>
        </g>
        <g font-family="Helvetica" font-size="12" fill="black">
          <text x="216.706" y="475.69">30</text>
        </g>
        <g font-family="Helvetica" font-size="12" fill="black">
          <text x="266.333" y="475.69">40</text>
        </g>
        <g font-family="Helvetica" font-size="12" fill="black">
          <text x="315.96" y="475.69">50</text>
        </g>
        <g font-family="Helvetica" font-size="12" fill="black">
          <text x="365.586" y="475.69">60</text>
        </g>
        <g font-family="Helvetica" font-size="12" fill="black">
          <text x="415.213" y="475.69">70</text>
        </g>
        <g font-family="Helvetica" font-size="12" fill="black">
          <text x="464.84" y="475.69">80</text>
        </g>
        <g font-family="Helvetica" font-size="12" fill="black">
          <text x="514.466" y="475.69">90</text>
        </g>
        <g font-family="Helvetica" font-size="12" fill="black">
          <text x="560.756" y="475.69">100</text>
        </g>
        <g font-family="Helvetica" font-size="12" fill="black">
          <text x="610.825" y="475.69">110</text>
        </g>
        <g font-family="Helvetica" font-size="12" fill="black">
          <text x="660.009" y="475.69">120</text>
        </g>
        <g font-family="Helvetica" font-size="12" fill="black">
          <text x="709.636" y="475.69">130</text>
        </g>
        <g font-family="Helvetica" font-size="12" fill="black">
          <text x="759.263" y="475.69">140</text>
        </g>
        <g font-family="Helvetica" font-size="12" fill="black">
          <text x="808.889" y="475.69">150</text>
        </g>
      </g>
      <path d="M 74.5 464.5 L 74.5 456.5 M 124.127 464.5 L 124.127 456.5 M 173.753 464.5 L 173.753 456.5 
               M 223.38 464.5 L 223.38 456.5 M 273.007 464.5 L 273.007 456.5 M 322.633 464.5 L 322.633 456.5 
               M 372.26 464.5 L 372.26 456.5 M 421.887 464.5 L 421.887 456.5 M 471.513 464.5 L 471.513 456.5 
               M 521.14 464.5 L 521.14 456.5 M 570.767 464.5 L 570.767 456.5 M 620.393 464.5 L 620.393 456.5 
               M 670.02 464.5 L 670.02 456.5 M 719.647 464.5 L 719.647 456.5 M 769.273 464.5 L 769.273 456.5 
               M 818.9 464.5 L 818.9 456.5 M 99.3133 460.5 L 99.3133 456.5 M 148.94 460.5 L 148.94 456.5 
               M 198.567 460.5 L 198.567 456.5 M 248.193 460.5 L 248.193 456.5 M 297.82 460.5 L 297.82 456.5 
               M 347.447 460.5 L 347.447 456.5 M 397.073 460.5 L 397.073 456.5 M 446.7 460.5 L 446.7 456.5 
               M 496.327 460.5 L 496.327 456.5 M 545.953 460.5 L 545.953 456.5 M 595.58 460.5 L 595.58 456.5 
               M 645.207 460.5 L 645.207 456.5 M 694.833 460.5 L 694.833 456.5 M 744.46 460.5 L 744.46 456.5 
               M 794.087 460.5 L 794.087 456.5 "
        stroke="black" fill="none" stroke-width="0.5"/>
    </g>
    <g font-family="Helvetica" font-size="12" fill="black">
      <g font-weight="bold">
        <text x="358.036" y="14.0188" font-family="Helvetica-Bold">Approximation von Funktionen</text>
      </g>
    </g>
    <path d="M 818.9 456.5 L 818.9 18.5 L 74.5 18.5 L 74.5 456.5 L 818.9 456.5 z "
      stroke="black" stroke-linecap="square" fill="none" stroke-width="0.5"/>
  </g>
</g>
</svg>
